<?xml version="1.0" standalone="no"?><!DOCTYPE svg PUBLIC "-//W3C//DTD SVG 1.1//EN" "http://www.w3.org/Graphics/SVG/1.1/DTD/svg11.dtd"><svg t="1702274158096" class="icon" viewBox="0 0 1024 1024" version="1.1" xmlns="http://www.w3.org/2000/svg" p-id="37524" xmlns:xlink="http://www.w3.org/1999/xlink" width="200" height="200"><path d="M769.8432 828.2112c-6.7584 0-13.5168-2.2528-19.0464-6.5536l-164.864-129.8432h-223.232c-84.7872 0-153.6-68.8128-153.6-153.6V195.584c0-84.7872 68.8128-153.6 153.6-153.6h467.968c84.7872 0 153.6 68.8128 153.6 153.6v342.4256c0 84.7872-68.8128 153.6-153.6 153.6h-30.1056v105.8816a30.80192 30.80192 0 0 1-30.72 30.72zM362.7008 103.424c-50.7904 0-92.16 41.3696-92.16 92.16v342.4256c0 50.7904 41.3696 92.16 92.16 92.16h233.8816c6.9632 0 13.5168 2.2528 19.0464 6.5536l123.4944 97.28v-73.1136c0-16.9984 13.7216-30.72 30.72-30.72h60.8256c50.7904 0 92.16-41.3696 92.16-92.16V195.584c0-50.7904-41.3696-92.16-92.16-92.16H362.7008z" fill="#515151" p-id="37525"></path><path d="M226.9184 982.016c-4.5056 0-8.8064-1.024-13.1072-2.8672a30.72 30.72 0 0 1-17.6128-27.8528v-95.0272h-2.8672c-84.7872 0-153.6-68.8128-153.6-153.6V414.5152c0-84.7872 68.8128-153.6 153.6-153.6h32.768c16.9984 0 30.72 13.7216 30.72 30.72s-13.7216 30.72-30.72 30.72h-32.768c-50.7904 0-92.16 41.3696-92.16 92.16v288.1536c0 50.7904 41.3696 92.16 92.16 92.16h33.5872c16.9984 0 30.72 13.7216 30.72 30.72v60.2112l101.1712-83.968c5.5296-4.5056 12.4928-7.168 19.6608-7.168h236.3392c16.9984 0 30.72 13.7216 30.72 30.72s-13.7216 30.72-30.72 30.72h-225.28l-142.9504 118.5792c-5.7344 4.9152-12.6976 7.3728-19.6608 7.3728z" fill="#515151" p-id="37526"></path><path d="M543.3344 361.6768m-53.248 0a53.248 53.248 0 1 0 106.496 0 53.248 53.248 0 1 0-106.496 0Z" fill="#515151" p-id="37527"></path><path d="M718.848 361.6768m-53.248 0a53.248 53.248 0 1 0 106.496 0 53.248 53.248 0 1 0-106.496 0Z" fill="#515151" p-id="37528"></path></svg>